<svg xmlns="http://www.w3.org/2000/svg" viewBox="0 0 128 128" role="img" aria-label="JTB education demo icon">
  <defs>
    <linearGradient id="bg" x1="0" x2="1" y1="0" y2="1">
      <stop offset="0%" stop-color="#0b2748"/>
      <stop offset="100%" stop-color="#1f5689"/>
    </linearGradient>
    <linearGradient id="gold" x1="0" x2="1" y1="0" y2="1">
      <stop offset="0%" stop-color="#f4e3b8"/>
      <stop offset="100%" stop-color="#d0a44c"/>
    </linearGradient>
  </defs>
  <rect width="128" height="128" rx="28" fill="url(#bg)"/>
  <rect x="16" y="16" width="96" height="96" rx="22" fill="none" stroke="rgba(255,255,255,0.18)" stroke-width="2"/>
  <path d="M42 34c14 0 24 7 24 18 0 10-9 17-22 19v16c0 5 4 9 10 9h18c8 0 13-4 13-11 0-6-4-10-11-11l-10-2" fill="none" stroke="url(#gold)" stroke-linecap="round" stroke-linejoin="round" stroke-width="10"/>
  <circle cx="86" cy="42" r="8" fill="url(#gold)"/>
  <path d="M34 94h22" stroke="#ffffff" stroke-linecap="round" stroke-width="6"/>
  <path d="M72 94h22" stroke="#ffffff" stroke-linecap="round" stroke-width="6"/>
</svg>
